<svg xmlns="http://www.w3.org/2000/svg" viewBox="0 0 512 512" role="img" aria-labelledby="title desc">
  <title id="title">DOE Sales Training Icon</title>
  <desc id="desc">Abstract shield and data-grid icon for DOE AI infrastructure sales training.</desc>
  <defs>
    <linearGradient id="bg" x1="0%" y1="0%" x2="100%" y2="100%">
      <stop offset="0%" stop-color="#0d6b5f"/>
      <stop offset="100%" stop-color="#d76a2d"/>
    </linearGradient>
  </defs>
  <rect width="512" height="512" rx="104" fill="#f7f2e9"/>
  <path d="M256 54 387 105v115c0 103-64 184-131 238C189 404 125 323 125 220V105L256 54Z" fill="url(#bg)"/>
  <path d="M256 111 340 144v74c0 64-38 118-84 157-46-39-84-93-84-157v-74l84-33Z" fill="#fff6eb" opacity=".95"/>
  <g fill="#0d6b5f">
    <rect x="188" y="179" width="48" height="48" rx="8"/>
    <rect x="244" y="179" width="80" height="48" rx="8"/>
    <rect x="188" y="235" width="136" height="34" rx="8" opacity=".86"/>
    <rect x="188" y="277" width="94" height="34" rx="8" opacity=".72"/>
  </g>
</svg>
